HIERARCHY
ROOT hip
{
  OFFSET 0.00112043 5.09927 -9.65472
  CHANNELS 6 Xposition Yposition Zposition Zrotation Xrotation Yrotation
  JOINT abdomen
  {
    OFFSET 0 -1.186 -1.5018
    CHANNELS 3 Zrotation Xrotation Yrotation
    JOINT abdomen2
    {
      OFFSET 0 9.964 0.2134
      CHANNELS 3 Zrotation Xrotation Yrotation
      JOINT chest
      {
        OFFSET 0 13.134 -3.2573
        CHANNELS 3 Zrotation Xrotation Yrotation
        JOINT neck
        {
          OFFSET 0 20.686 -1.6905
          CHANNELS 3 Zrotation Xrotation Yrotation
          JOINT head
          {
            OFFSET 0 7.238 -0.1237
            CHANNELS 3 Zrotation Xrotation Yrotation
            End Site
            {
              OFFSET 0 0 0
            }
          }
        }
        JOINT lCollar
        {
          OFFSET 1.7069 20.075 5.0056
          CHANNELS 3 Zrotation Xrotation Yrotation
          JOINT lShldr
          {
            OFFSET 13.6458 -0.047 -4.849
            CHANNELS 3 Zrotation Xrotation Yrotation
            JOINT lForeArm
            {
              OFFSET 28.3255 -0.9759 2.2888
              CHANNELS 3 Zrotation Xrotation Yrotation
              JOINT lHand
              {
                OFFSET 22.1583 -0.53 10.8316
                CHANNELS 3 Zrotation Xrotation Yrotation
                JOINT lThumb1
                {
                  OFFSET 0.786 0.112 2.5817
                  CHANNELS 3 Zrotation Xrotation Yrotation
                  JOINT lThumb2
                  {
                    OFFSET 0.3601 -0.878 4.2331
                    CHANNELS 3 Zrotation Xrotation Yrotation
                    JOINT lThumb2_End
                    {
                      OFFSET 1.8127 -1.216 2.2227
                      CHANNELS 3 Zrotation Xrotation Yrotation
                      End Site
                      {
                        OFFSET 0.0181 -0.0122 0.0222
                      }
                    }
                  }
                }
                JOINT lCarpal1
                {
                  OFFSET 0.9571 1.114 1.7695
                  CHANNELS 3 Zrotation Xrotation Yrotation
                  JOINT lIndex1
                  {
                    OFFSET 4.1246 0.487 4.1451
                    CHANNELS 3 Zrotation Xrotation Yrotation
                    JOINT lIndex2
                    {
                      OFFSET 3.4052 -1.454 2.7682
                      CHANNELS 3 Zrotation Xrotation Yrotation
                      JOINT lIndex2_End
                      {
                        OFFSET 1.4531 -1.795 1.2713
                        CHANNELS 3 Zrotation Xrotation Yrotation
                        End Site
                        {
                          OFFSET 0.0145 -0.0179 0.0127
                        }
                      }
                    }
                  }
                  JOINT lMid1
                  {
                    OFFSET 5.6954 0.21 2.1184
                    CHANNELS 3 Zrotation Xrotation Yrotation
                    JOINT lMid2
                    {
                      OFFSET 3.9766 -1.54 2.3863
                      CHANNELS 3 Zrotation Xrotation Yrotation
                      JOINT lMid2_End
                      {
                        OFFSET 1.4042 -1.926 1.125
                        CHANNELS 3 Zrotation Xrotation Yrotation
                        End Site
                        {
                          OFFSET 0.014 -0.0193 0.0113
                        }
                      }
                    }
                  }
                }
                JOINT lCarpal2
                {
                  OFFSET 2.0956 0.66 -0.3894
                  CHANNELS 3 Zrotation Xrotation Yrotation
                  JOINT lRing1
                  {
                    OFFSET 5.0395 -0.09 2.4971
                    CHANNELS 3 Zrotation Xrotation Yrotation
                    JOINT lRing2
                    {
                      OFFSET 3.7921 -1.552 1.4806
                      CHANNELS 3 Zrotation Xrotation Yrotation
                      JOINT lRing2_End
                      {
                        OFFSET 1.4655 -1.808 0.9609
                        CHANNELS 3 Zrotation Xrotation Yrotation
                        End Site
                        {
                          OFFSET 0.0147 -0.0181 0.0096
                        }
                      }
                    }
                  }
                  JOINT lPinky1
                  {
                    OFFSET 4.9141 -1.269 0.3591
                    CHANNELS 3 Zrotation Xrotation Yrotation
                    JOINT lPinky2
                    {
                      OFFSET 3.1477 -1.685 0.8462
                      CHANNELS 3 Zrotation Xrotation Yrotation
                      JOINT lPinky2_End
                      {
                        OFFSET 0.8055 -1.585 0.7955
                        CHANNELS 3 Zrotation Xrotation Yrotation
                        End Site
                        {
                          OFFSET 0.0081 -0.0158 0.008
                        }
                      }
                    }
                  }
                }
              }
            }
          }
        }
        JOINT rCollar
        {
          OFFSET -1.7069 20.075 5.0056
          CHANNELS 3 Zrotation Xrotation Yrotation
          JOINT rShldr
          {
            OFFSET -13.6458 -0.047 -4.849
            CHANNELS 3 Zrotation Xrotation Yrotation
            JOINT rForeArm
            {
              OFFSET -28.3255 -0.9759 2.2888
              CHANNELS 3 Zrotation Xrotation Yrotation
              JOINT rHand
              {
                OFFSET -22.1583 -0.53 10.8316
                CHANNELS 3 Zrotation Xrotation Yrotation
                JOINT rThumb1
                {
                  OFFSET -0.786 0.112 2.5817
                  CHANNELS 3 Zrotation Xrotation Yrotation
                  JOINT rThumb2
                  {
                    OFFSET -0.3601 -0.878 4.2331
                    CHANNELS 3 Zrotation Xrotation Yrotation
                    JOINT rThumb2_End
                    {
                      OFFSET -1.8127 -1.216 2.2227
                      CHANNELS 3 Zrotation Xrotation Yrotation
                      End Site
                      {
                        OFFSET -0.0181 -0.0122 0.0222
                      }
                    }
                  }
                }
                JOINT rCarpal1
                {
                  OFFSET -0.9571 1.114 1.7695
                  CHANNELS 3 Zrotation Xrotation Yrotation
                  JOINT rIndex1
                  {
                    OFFSET -4.1246 0.487 4.1451
                    CHANNELS 3 Zrotation Xrotation Yrotation
                    JOINT rIndex2
                    {
                      OFFSET -3.4052 -1.454 2.7682
                      CHANNELS 3 Zrotation Xrotation Yrotation
                      JOINT rIndex2_End
                      {
                        OFFSET -1.4531 -1.795 1.2713
                        CHANNELS 3 Zrotation Xrotation Yrotation
                        End Site
                        {
                          OFFSET -0.0145 -0.018 0.0127
                        }
                      }
                    }
                  }
                  JOINT rMid1
                  {
                    OFFSET -5.6954 0.21 2.1184
                    CHANNELS 3 Zrotation Xrotation Yrotation
                    JOINT rMid2
                    {
                      OFFSET -3.9766 -1.54 2.3863
                      CHANNELS 3 Zrotation Xrotation Yrotation
                      JOINT rMid2_End
                      {
                        OFFSET -1.4042 -1.926 1.125
                        CHANNELS 3 Zrotation Xrotation Yrotation
                        End Site
                        {
                          OFFSET -0.014 -0.0193 0.0113
                        }
                      }
                    }
                  }
                }
                JOINT rCarpal2
                {
                  OFFSET -2.0956 0.66 -0.3894
                  CHANNELS 3 Zrotation Xrotation Yrotation
                  JOINT rRing1
                  {
                    OFFSET -5.0395 -0.09 2.4971
                    CHANNELS 3 Zrotation Xrotation Yrotation
                    JOINT rRing2
                    {
                      OFFSET -3.7921 -1.552 1.4806
                      CHANNELS 3 Zrotation Xrotation Yrotation
                      JOINT rRing2_End
                      {
                        OFFSET -1.4655 -1.808 0.9609
                        CHANNELS 3 Zrotation Xrotation Yrotation
                        End Site
                        {
                          OFFSET -0.0147 -0.0181 0.0096
                        }
                      }
                    }
                  }
                  JOINT rPinky1
                  {
                    OFFSET -4.9141 -1.269 0.3592
                    CHANNELS 3 Zrotation Xrotation Yrotation
                    JOINT rPinky2
                    {
                      OFFSET -3.1477 -1.685 0.8462
                      CHANNELS 3 Zrotation Xrotation Yrotation
                      JOINT rPinky2_End
                      {
                        OFFSET -0.8055 -1.585 0.7955
                        CHANNELS 3 Zrotation Xrotation Yrotation
                        End Site
                        {
                          OFFSET -0.0081 -0.0158 0.008
                        }
                      }
                    }
                  }
                }
              }
            }
          }
        }
      }
    }
  }
  JOINT lThigh
  {
    OFFSET 8.367 -8.2066 0.5982
    CHANNELS 3 Zrotation Xrotation Yrotation
    JOINT lShin
    {
      OFFSET 2.1923 -43.463 -0.4932
      CHANNELS 3 Zrotation Xrotation Yrotation
      JOINT lFoot
      {
        OFFSET 0.7333 -45.8593 -2.6451
        CHANNELS 3 Zrotation Xrotation Yrotation
        End Site
        {
          OFFSET 2.6618 -4.2699 12.3931
        }
      }
    }
  }
  JOINT rThigh
  {
    OFFSET -8.367 -8.2066 0.5982
    CHANNELS 3 Zrotation Xrotation Yrotation
    JOINT rShin
    {
      OFFSET -2.1923 -43.463 -0.4931
      CHANNELS 3 Zrotation Xrotation Yrotation
      JOINT rFoot
      {
        OFFSET -0.7333 -45.8593 -2.6451
        CHANNELS 3 Zrotation Xrotation Yrotation
        End Site
        {
          OFFSET -2.6618 -4.2699 12.3931
        }
      }
    }
  }
}
MOTION
Frames:	4
Frame Time:	0.0333333
0 91.7903 2.51682 0 0 -0 0 0 -0 0 0 -0 0 0 -0 0 0 -0 0 0 -0 0 0 -0 1.66051 0.0835086 5.75766 -0.0175111 0.895433 15.7816 7.95139e-016 -1.98785e-016 -0 5.46658e-016 -3.97569e-016 -0 5.96354e-016 0 -0 3.97569e-016 1.98785e-016 9.54166e-015 1.49089e-016 -3.97569e-016 -0 6.4605e-016 0 3.18055e-015 5.96354e-016 0 3.18055e-015 8.94531e-016 -1.98785e-016 6.36111e-015 6.4605e-016 0 3.18055e-015 5.96354e-016 0 3.18055e-015 8.94531e-016 -1.98785e-016 6.36111e-015 1.49089e-016 -3.97569e-016 -0 6.4605e-016 0 3.18055e-015 5.96354e-016 0 3.18055e-015 8.94531e-016 -1.98785e-016 6.36111e-015 6.4605e-016 0 3.18055e-015 5.96354e-016 0 3.18055e-015 8.94531e-016 -1.98785e-016 6.36111e-015 0 0 -0 -1.4496 0.0636048 -5.0245 -1.74811 1.20616 -16.8394 -1.19271e-015 1.98785e-016 -3.18055e-015 -3.97569e-016 1.98785e-016 -3.18055e-015 -2.98177e-016 1.98785e-016 -3.18055e-015 -2.98177e-016 3.97569e-016 -0 4.96962e-016 0 -6.36111e-015 -9.93923e-017 3.97569e-016 -0 -8.94531e-016 5.96354e-016 -0 -3.97569e-016 3.97569e-016 -0 -9.93923e-017 3.97569e-016 -0 -8.94531e-016 5.96354e-016 -0 -3.97569e-016 3.97569e-016 -0 4.96962e-016 0 -6.36111e-015 -9.93923e-017 3.97569e-016 -0 -8.94531e-016 5.96354e-016 -0 -3.97569e-016 3.97569e-016 -0 -9.93923e-017 3.97569e-016 -0 -8.94531e-016 5.96354e-016 -0 -3.97569e-016 3.97569e-016 -0 -4.66111 -0.998717 0.12318 0.00986924 1.54847 0.176523 4.65186 -0.572283 -0.254274 4.66111 -0.998765 -0.123176 -0.00986867 1.54869 -0.176537 -4.65186 -0.572453 0.25427 
37.7107 53.1257 5.03397 0 25.9502 -0 -0.0526569 1.45164 -0.350654 -0.0964686 2.90362 -0.70031 -0.0964686 2.9036 -0.70031 1.33536e-006 -16.9219 7.85829e-007 -6.50905e-008 -0.339829 3.12945e-007 -9.63015 8.0592 -23.6858 -17.1984 -4.91981 15.1284 -37.711 27.5501 -14.679 39.4148 -20.8645 -4.09469 -3.62086e-007 1.49028e-006 6.66505e-007 3.34265e-006 -7.66109e-007 2.47109e-008 -8.74653e-015 6.36111e-015 -4.77083e-015 -6.36111e-015 -6.36111e-015 -0 -3.62086e-007 1.49028e-006 6.66505e-007 3.34265e-006 -7.66109e-007 2.47109e-008 -1.35174e-014 6.36111e-015 -6.36111e-015 -3.62086e-007 1.49028e-006 6.66505e-007 3.34265e-006 -7.66109e-007 2.47109e-008 -1.35174e-014 6.36111e-015 -6.36111e-015 -6.36111e-015 -6.36111e-015 -0 -3.62086e-007 1.49028e-006 6.66505e-007 3.34265e-006 -7.66109e-007 2.47109e-008 -1.35174e-014 6.36111e-015 -6.36111e-015 -3.62086e-007 1.49028e-006 6.66505e-007 3.34265e-006 -7.66109e-007 2.47109e-008 -1.35174e-014 6.36111e-015 -6.36111e-015 8.85359 7.88678 23.1361 17.5558 -4.92052 -14.5236 38.181 27.9904 15.4449 -40.1331 -21.1069 3.04966 3.97569e-015 3.18055e-015 3.18055e-015 1.59028e-015 -6.36111e-015 3.18055e-015 -7.95139e-015 6.36111e-015 3.18055e-015 4.77083e-015 0 1.59028e-015 2.38542e-015 -3.18055e-015 6.36111e-015 4.77083e-015 6.36111e-015 3.18055e-015 -7.94503e-031 9.54166e-015 4.77083e-015 2.38542e-015 -3.18055e-015 6.36111e-015 4.77083e-015 6.36111e-015 3.18055e-015 -7.94503e-031 9.54166e-015 4.77083e-015 4.77083e-015 0 1.59028e-015 2.38542e-015 -3.18055e-015 6.36111e-015 4.77083e-015 6.36111e-015 3.18055e-015 -7.94503e-031 9.54166e-015 4.77083e-015 2.38542e-015 -3.18055e-015 6.36111e-015 4.77083e-015 6.36111e-015 3.18055e-015 -7.94503e-031 9.54166e-015 4.77083e-015 7.84525 -35.1756 17.7787 14.0093 82.8673 -10.4316 -16.1059 54.4382 26.4109 -7.95353 -35.1792 -17.9131 -14.6807 82.8243 11.1418 16.6641 55.2917 -26.9206 
43.8817 46.2993 5.31671 0 28.897 -0 -0.044832 1.85122 -0.413177 -0.0763579 3.70271 -0.825551 -0.0763582 3.70271 -0.825549 2.086e-005 -19.8735 7.40423e-006 -3.8579e-007 -0.675678 2.98691e-007 -10.5748 9.08047 -27.6486 -20.2198 -5.72778 16.5581 -41.3419 29.9836 -20.3455 45.6761 -23.4991 -3.90268 2.74757e-006 -2.38673e-006 4.62952e-006 -2.48525e-006 4.93795e-007 -3.71557e-006 -5.74384e-007 -1.57227e-006 2.88221e-006 -1.59028e-015 0 -1.59028e-015 2.74757e-006 -2.38673e-006 4.62952e-006 -2.48525e-006 4.93795e-007 -3.71557e-006 -5.74384e-007 -1.57227e-006 2.88221e-006 2.74757e-006 -2.38673e-006 4.62952e-006 -2.48525e-006 4.93795e-007 -3.71557e-006 -5.74384e-007 -1.57227e-006 2.88221e-006 -1.59028e-015 0 -1.59028e-015 2.74757e-006 -2.38673e-006 4.62952e-006 -2.48525e-006 4.93795e-007 -3.71557e-006 -5.74384e-007 -1.57227e-006 2.88221e-006 2.74757e-006 -2.38673e-006 4.62952e-006 -2.48525e-006 4.93795e-007 -3.71557e-006 -5.74384e-007 -1.57227e-006 2.88221e-006 9.69875 8.90018 27.0038 20.5055 -5.70737 -16.0924 41.8917 30.1997 21.4053 -46.5223 -23.7599 2.68573 -3.97569e-015 0 -0 -1.76556e-031 3.18055e-015 3.18055e-015 -3.53113e-031 6.36111e-015 3.18055e-015 -3.97569e-015 -3.18055e-015 -0 -1.59028e-015 -3.18055e-015 6.36111e-015 8.74653e-015 -6.36111e-015 -3.18055e-015 6.36111e-015 3.18055e-015 1.59028e-015 -1.59028e-015 -3.18055e-015 6.36111e-015 8.74653e-015 -6.36111e-015 -3.18055e-015 6.36111e-015 3.18055e-015 1.59028e-015 -3.97569e-015 -3.18055e-015 -0 -1.59028e-015 -3.18055e-015 6.36111e-015 8.74653e-015 -6.36111e-015 -3.18055e-015 6.36111e-015 3.18055e-015 1.59028e-015 -1.59028e-015 -3.18055e-015 6.36111e-015 8.74653e-015 -6.36111e-015 -3.18055e-015 6.36111e-015 3.18055e-015 1.59028e-015 11.728 -38.3692 21.7381 160.166 83.7475 -155.529 -28.6213 61.3164 38.4959 -11.8662 -38.3516 -21.8972 -159.021 83.7269 154.414 29.8384 62.1904 -39.6404 
42.3145 47.9481 5.95416 0 26.1956 -0 -0.0503749 1.99316 -0.396169 -0.087028 3.98664 -0.791304 -0.087028 3.98665 -0.791304 -6.03748e-007 -19.3962 3.35483e-006 9.63856e-008 -1.01077 -5.68366e-007 -10.3501 8.83294 -26.6394 -19.5975 -5.5491 16.0176 -40.086 29.1395 -18.5911 43.2271 -22.5841 -3.99704 -1.7813e-007 -2.72035e-006 2.34128e-006 2.85231e-006 -3.93502e-006 3.83744e-006 -5.51618e-008 -2.47323e-007 -1.93983e-007 2.38542e-015 3.18055e-015 -1.59028e-015 -1.7813e-007 -2.72035e-006 2.34128e-006 2.85231e-006 -3.93502e-006 3.83744e-006 -5.51618e-008 -2.47323e-007 -1.93983e-007 -1.7813e-007 -2.72035e-006 2.34128e-006 2.85231e-006 -3.93502e-006 3.83744e-006 -5.51618e-008 -2.47323e-007 -1.93983e-007 2.38542e-015 3.18055e-015 -1.59028e-015 -1.7813e-007 -2.72035e-006 2.34128e-006 2.85231e-006 -3.93502e-006 3.83744e-006 -5.51618e-008 -2.47323e-007 -1.93983e-007 -1.7813e-007 -2.72035e-006 2.34128e-006 2.85231e-006 -3.93502e-006 3.83744e-006 -5.51618e-008 -2.47323e-007 -1.93983e-007 9.49872 8.65384 26.0189 19.7606 -5.50871 -15.6934 40.4705 29.3169 19.4847 -43.9731 -22.8748 2.89085 -1.35174e-014 6.36111e-015 -1.59028e-015 5.63167e-007 -1.44624e-006 -2.97405e-006 5.56597e-015 -3.18055e-015 -0 -6.36111e-015 6.36111e-015 -0 -9.54166e-015 6.36111e-015 1.59028e-015 5.63167e-007 -1.44624e-006 -2.97405e-006 -7.95139e-015 0 -6.36111e-015 -9.54166e-015 6.36111e-015 1.59028e-015 5.63167e-007 -1.44624e-006 -2.97405e-006 -7.95139e-015 0 -6.36111e-015 -6.36111e-015 6.36111e-015 -0 -9.54166e-015 6.36111e-015 1.59028e-015 5.63167e-007 -1.44624e-006 -2.97405e-006 -7.95139e-015 0 -6.36111e-015 -9.54166e-015 6.36111e-015 1.59028e-015 5.63167e-007 -1.44624e-006 -2.97405e-006 -7.95139e-015 0 -6.36111e-015 10.0913 -34.492 19.8322 129.586 87.4868 -125.305 -24.8158 59.648 34.8028 -10.2174 -34.4603 -19.9784 -127.322 87.4192 123.077 25.816 60.5302 -35.7374 
